<svg xmlns="http://www.w3.org/2000/svg" xmlns:xlink="http://www.w3.org/1999/xlink"
     version="1.1"
     x="0px" y="0px"
     viewBox="0 0 100 125"
     enable-background="new 0 0 100 100" xml:space="preserve"
     style="&#10;    transform: rotate(135deg);&#10;">
    <path fill="#000000"
          d="M78.946,81.492l0.188-0.188l1.694,1.455l0.494,0.423l0.458-0.459l2.005-2.005l0.469-0.468l-0.441-0.493  l-1.477-1.656l0.328-0.328l0.796-0.795l0.495-0.495l-0.495-0.495l-2.425-2.426l-0.08-0.08l-0.102-0.05l-6.269-3.138l-0.224-0.223  l-1.955-1.722L56.624,52.566l-0.928-1.123l0.319-0.318l0.795-0.796l0.495-0.495l-0.495-0.495l-1.464-1.464l-0.129-0.129  l-0.176-0.049c-1.88-0.531-3.979-1.155-4.393-1.322l-3.304-2.711l-7.097-7.097l-6.89-7.176l-5.811-5.812l-0.823-0.823l-0.835-0.779  l-0.841-0.763l-0.848-0.76l-0.875-0.729l-0.84-0.685l-0.804-0.661l-0.854-0.613l-0.793-0.572l-0.787-0.553l-0.022-0.016  l-0.023-0.014c-0.246-0.146-0.848-0.494-1.138-0.595l-0.414-0.145l-0.311,0.311c-0.208,0.208-0.363,0.606-0.176,1.102l0.022,0.059  l0.033,0.055l0.453,0.751l0.014,0.023l0.016,0.021l0.552,0.773l0.577,0.799l0.584,0.815l0.682,0.845l0.681,0.836l0.7,0.866  l0.797,0.867l0.762,0.828l0.739,0.827l0.85,0.852l5.801,5.801l7.215,6.894l7.082,7.083c0.901,1.125,2.325,2.901,2.786,3.45  l1.212,4.289l0.049,0.176l0.129,0.129l1.464,1.464l0.495,0.495l0.495-0.495l0.944-0.944l0.175-0.175l1.165,0.902l15.785,15.785  l1.633,1.938l0.02,0.023l0.021,0.021l0.223,0.224l3.137,6.269l0.051,0.102l0.08,0.08l2.426,2.425l0.495,0.495l0.495-0.495  L78.946,81.492z M78.921,80.174l-0.47,0.469l-2.229-2.229l-2.198-3.481l-0.443-0.719l2.115,2.115c0.097,0.098,0.256,0.098,0.354,0  c0.008-0.008,0.005-0.021,0.012-0.029c0.01-0.008,0.023-0.006,0.031-0.015c0.098-0.098,0.098-0.256,0-0.354  c-0.041-0.042-0.096-0.057-0.15-0.062l-2.175-2.176c-0.001,0-0.003,0-0.003-0.001c-0.002-0.001-0.001-0.003-0.002-0.004  l-1.242-1.177c-0.019-0.017-0.043-0.014-0.063-0.023c-0.028-0.016-0.052-0.029-0.083-0.033c-0.011-0.001-0.02-0.011-0.031-0.012  l0.439-0.438c0,0.001,0.002,0.002,0.001,0.002c0.001,0.003,0.003,0.006,0.003,0.009c0,0.026,0.02,0.047,0.029,0.072  c0.011,0.031,0.01,0.064,0.035,0.092l1.165,1.254c0.001,0.001,0.003,0,0.005,0.002c0,0,0,0.002,0.002,0.004l5.22,5.221  c0.002,0.002,0.005,0.001,0.007,0.003c0.002,0.001,0.002,0.005,0.004,0.007l0.619,0.553l-0.312,0.313l-0.564-0.614  c-0.001-0.002-0.004-0.002-0.005-0.003s-0.001-0.004-0.002-0.005l-1.64-1.64c-0.006-0.054-0.021-0.108-0.062-0.15  c-0.097-0.097-0.256-0.098-0.354,0l-0.044,0.044c-0.098,0.098-0.097,0.256,0.001,0.354l1.737,1.738l0.579,0.631L78.921,80.174z   M70.277,70.896l1.678-1.678l1.546,1.359l-1.896,1.896L70.277,70.896z M53.107,53.959l1.881-1.881l0.779,0.944l-1.688,1.688  L53.107,53.959z M73.866,70.92l0.005,0.006c-0.006,0-0.012,0.006-0.017,0.006L73.866,70.92z M72.104,72.683  c-0.001,0.027,0.012,0.05,0.02,0.077c0.006,0.021-0.002,0.045,0.012,0.064l0.336,0.546l-0.4-0.4l-0.127-0.127L72.104,72.683z   M82.947,80.213l-1.675,1.675l-1.808-1.552l0.255-0.254c0.003-0.003,0.005-0.006,0.008-0.008l0.685-0.686  c0.004-0.003,0.007-0.006,0.01-0.01l0.824-0.824c0.004-0.002,0.006-0.006,0.01-0.009l0.107-0.107L82.947,80.213z M81.816,77.279  l-0.619,0.618l-0.137,0.136l-0.629-0.568l-1.742-1.744c-0.098-0.098-0.256-0.098-0.354,0c-0.009,0.008-0.005,0.021-0.012,0.03  c-0.01,0.007-0.024,0.006-0.032,0.015c-0.098,0.098-0.098,0.256,0,0.354c0.041,0.041,0.097,0.057,0.15,0.062l1.64,1.64  c0.002,0.002,0.005,0.001,0.007,0.003c0.002,0.001,0.001,0.004,0.002,0.006l0.617,0.558l-0.455,0.456l-0.532-0.631  c-0.003-0.003-0.007-0.003-0.011-0.005c-0.002-0.003-0.001-0.009-0.004-0.012l-5.221-5.22c-0.002-0.003-0.004-0.001-0.006-0.003  s-0.002-0.004-0.004-0.007l-1.275-1.144c-0.025-0.022-0.06-0.022-0.09-0.032c-0.025-0.009-0.047-0.029-0.073-0.03  c-0.003,0-0.005,0-0.007,0.001c-0.002-0.001-0.002-0.001-0.002-0.001l0.596-0.597c0,0.009,0.006,0.016,0.006,0.024  c0.002,0.038,0.016,0.066,0.035,0.101c0.01,0.019,0.004,0.041,0.02,0.058l1.172,1.248c0.001,0.002,0.002,0.002,0.004,0.002  c0,0.002,0,0.002,0.001,0.004l2.175,2.176c0.006,0.053,0.021,0.108,0.062,0.15c0.098,0.098,0.256,0.098,0.354,0l0.045-0.045  c0.098-0.098,0.098-0.256,0-0.354l-2.006-2.004l4.098,2.527L81.816,77.279z M80.392,74.264l2.22,2.22l-0.441,0.442l-2.25-2.249  c-0.007-0.008-0.02-0.005-0.027-0.012s-0.008-0.019-0.018-0.024l-4.129-2.547l-0.309-0.309L80.392,74.264z M51.271,47.618  l3.45,0.976l1.241,1.241l-0.442,0.442l-1.287-1.287c-0.012-0.013-0.03-0.01-0.044-0.019c-0.014-0.01-0.018-0.028-0.032-0.034  l-2.758-1.191L51.271,47.618z M51.15,48.183c0.001,0,0.002,0,0.003,0c0.001,0.001,0.001,0.002,0.003,0.002l2.757,1.191l1.253,1.254  l-0.618,0.618l-0.142,0.141l-0.328-0.279l-1.044-1.043c-0.097-0.098-0.256-0.098-0.354,0c-0.009,0.008-0.005,0.021-0.013,0.03  c-0.01,0.007-0.023,0.006-0.031,0.014c-0.098,0.098-0.098,0.256,0,0.354c0.041,0.042,0.096,0.057,0.15,0.062l0.943,0.943  c0.002,0.004,0.006,0.002,0.01,0.005c0.003,0.003,0.002,0.007,0.005,0.009l0.515,0.438c0.031,0.026,0.07,0.028,0.107,0.037  c0.01,0.002,0.017,0.01,0.025,0.01l-0.562,0.562c-0.002-0.016-0.017-0.025-0.021-0.041c-0.009-0.025-0.006-0.053-0.023-0.076  l-0.408-0.541c-0.004-0.006-0.012-0.004-0.016-0.01c-0.004-0.004-0.002-0.012-0.007-0.017l-3.11-3.11  c-0.003-0.003-0.008-0.001-0.011-0.004c-0.004-0.003-0.003-0.008-0.006-0.011l-0.749-0.623l0.477-0.477l0.655,0.729  c0.002,0.002,0.004,0.001,0.006,0.003s0,0.004,0.003,0.007l1.235,1.236c0.006,0.054,0.021,0.109,0.062,0.15  c0.098,0.098,0.256,0.098,0.354,0l0.045-0.044c0.098-0.098,0.098-0.256,0-0.354L51.15,48.183z M18.139,17.087l0.301,0.178  l-0.121,0.121L18.139,17.087z M18.597,17.814l0.276-0.276l0.364,0.255L19.22,17.81l-0.366,0.366L18.597,17.814z M32.85,30.232  l6.554,6.826l-1.284,1.283l-6.842-6.538L32.85,30.232z M45.58,45.831l1.312-1.312l2.998,2.46l-1.884,1.883L45.58,45.831z   M48.338,49.237l0.077-0.077l0.115,0.27L48.338,49.237z M50.111,52.986c0.007,0.016,0.024,0.019,0.033,0.031  c0.009,0.014,0.006,0.031,0.018,0.043l1.288,1.287l-0.592,0.591l-1.241-1.241l-0.976-3.45l0.161,0.162l0.261,0.261L50.111,52.986z   M51.803,53.994l-1.256-1.256L49.5,50.421l-0.216-0.504l1.231,1.231c0.097,0.098,0.256,0.098,0.354,0  c0.008-0.008,0.005-0.021,0.012-0.029c0.009-0.008,0.023-0.006,0.032-0.015c0.097-0.098,0.097-0.256,0-0.354  c-0.041-0.041-0.097-0.057-0.15-0.062l-1.236-1.236c-0.001-0.001-0.005-0.001-0.006-0.002c-0.001-0.001-0.001-0.004-0.003-0.005  l-0.725-0.662l0.329-0.328l0.648,0.732c0.002,0.002,0.005,0.001,0.007,0.004c0.002,0.002,0.001,0.005,0.003,0.007l3.11,3.11  c0.004,0.004,0.008,0.002,0.012,0.006c0.002,0.002,0.002,0.008,0.006,0.011l0.52,0.431c0.02,0.018,0.047,0.015,0.072,0.024  c0.018,0.007,0.031,0.026,0.05,0.029l-0.41,0.41c-0.001-0.009-0.009-0.017-0.011-0.025c-0.008-0.038-0.011-0.078-0.039-0.11  l-0.441-0.508c-0.002-0.004-0.006-0.002-0.008-0.004c-0.004-0.004-0.002-0.007-0.004-0.01l-0.943-0.943  c-0.006-0.053-0.021-0.108-0.062-0.15c-0.098-0.097-0.256-0.098-0.354,0l-0.044,0.045c-0.099,0.098-0.098,0.256,0,0.354l1.042,1.042  l0.284,0.327l-0.288,0.288L51.803,53.994z M75.287,79.368l-2.479-4.954l0.328,0.329l0.479,0.479l2.199,3.483  c0.006,0.009,0.018,0.008,0.023,0.017c0.006,0.008,0.004,0.019,0.012,0.026l2.248,2.248l-0.591,0.592L75.287,79.368z"/>
</svg>