<svg xmlns="http://www.w3.org/2000/svg" xmlns:xlink="http://www.w3.org/1999/xlink" version="1.1" x="0px" y="0px" viewBox="0 0 130 162.5" style="enable-background:new 0 0 130 130;" xml:space="preserve"><g><path d="M106.7597656,58.2011719h-6.4393311c-0.4346924-3.682312-3.2313232-6.647583-6.8308105-7.3356934   C93.0264282,36.0068359,80.4295044,24.0551758,65,24.0551758s-28.0263672,11.951416-28.489624,26.8101196   c-3.5999756,0.6878052-6.3970947,3.6532593-6.8317871,7.3358765h-6.4383545C10.4257813,58.2011719,0,68.6264648,0,81.4414063   c0,0.5522461,0.4472656,1,1,1h22.2398682c0.4845581,4.6268311,4.2935181,8.2677002,8.9866943,8.5109863v7.2873535   c0,0.5522461,0.4472656,1,1,1h2.4914551c0.4927368,3.7767334,3.7232666,6.7050781,7.6325684,6.7050781   s7.1398315-2.9283447,7.6325684-6.7050781h6.3833008c0.4928589,3.7767334,3.7242432,6.7050781,7.6335449,6.7050781   s7.1398315-2.9283447,7.6325684-6.7050781h6.3833008c0.4927368,3.7767334,3.7232666,6.7050781,7.6325684,6.7050781   s7.1398315-2.9283447,7.6325684-6.7050781h3.5178223c0.5527344,0,1-0.4477539,1-1v-7.2863159   c2.3591309-0.1204224,4.5620728-1.0847778,6.2451172-2.7669067c1.5644531-1.5656738,2.5167236-3.5772705,2.7418213-5.7451172H129   c0.5527344,0,1-0.4477539,1-1C130,68.6264648,119.5742188,58.2011719,106.7597656,58.2011719z M65,26.0551758   c14.2532349,0,25.9107666,10.942749,26.4841309,24.6547852H38.5145264C39.0603027,37.026062,50.7285156,26.0551758,65,26.0551758z    M38.1054688,52.7099609h53.7880859c3.2382202,0,5.9226074,2.3864136,6.4060059,5.4912109H31.6994629   C32.1828613,55.0963745,34.8672485,52.7099609,38.1054688,52.7099609z M43.3505859,103.9448242   c-2.803894,0-5.1367798-2.0351563-5.6116333-4.7050781h11.2232666   C48.4873657,101.909668,46.15448,103.9448242,43.3505859,103.9448242z M65,103.9448242   c-2.8047485,0-5.1377563-2.0351563-5.6126099-4.7050781h11.2242432C70.1367798,101.909668,67.803894,103.9448242,65,103.9448242z    M86.6484375,103.9448242c-2.803894,0-5.1367798-2.0351563-5.6116333-4.7050781h11.2232666   C91.7852173,101.909668,89.4523315,103.9448242,86.6484375,103.9448242z M34.2265625,97.2397461v-6.262207h62.5722656v6.262207   H34.2265625z M103.6298828,86.7724609c-1.4228516,1.421875-3.3144531,2.2050781-5.3261719,2.2050781H32.7226563   c-3.8164063,0-6.9794922-2.8515625-7.4697266-6.5361328h80.5214844   C105.5585938,84.074707,104.8164063,85.5854492,103.6298828,86.7724609z M106.8398438,80.4414063H24.1865234H2.0234375   c0.5234375-11.2495117,9.8398438-20.2402344,21.2167969-20.2402344h83.5195313   c11.3769531,0,20.6933594,8.9907227,21.2167969,20.2402344H106.8398438z"/><path d="M22.2207031,65.1425781c-2.8583984,0-5.1835938,2.3232422-5.1835938,5.1787109s2.3251953,5.1782227,5.1835938,5.1782227   c2.8554688,0,5.1777344-2.3227539,5.1777344-5.1782227S25.0761719,65.1425781,22.2207031,65.1425781z M22.2207031,73.4995117   c-1.7558594,0-3.1835938-1.4257813-3.1835938-3.1782227c0-1.7529297,1.4277344-3.1787109,3.1835938-3.1787109   c1.7519531,0,3.1777344,1.4257813,3.1777344,3.1787109C25.3984375,72.0737305,23.9726563,73.4995117,22.2207031,73.4995117z"/><path d="M43.6113281,65.1425781c-2.8583984,0-5.1835938,2.3232422-5.1835938,5.1787109s2.3251953,5.1782227,5.1835938,5.1782227   c2.8554688,0,5.1777344-2.3227539,5.1777344-5.1782227S46.4667969,65.1425781,43.6113281,65.1425781z M43.6113281,73.4995117   c-1.7558594,0-3.1835938-1.4257813-3.1835938-3.1782227c0-1.7529297,1.4277344-3.1787109,3.1835938-3.1787109   c1.7519531,0,3.1777344,1.4257813,3.1777344,3.1787109C46.7890625,72.0737305,45.3632813,73.4995117,43.6113281,73.4995117z"/><path d="M65.0019531,65.1425781c-2.8574219,0-5.1826172,2.3232422-5.1826172,5.1787109s2.3251953,5.1782227,5.1826172,5.1782227   c2.8554688,0,5.1787109-2.3227539,5.1787109-5.1782227S67.8574219,65.1425781,65.0019531,65.1425781z M65.0019531,73.4995117   c-1.7548828,0-3.1826172-1.4257813-3.1826172-3.1782227c0-1.7529297,1.4277344-3.1787109,3.1826172-3.1787109   c1.7529297,0,3.1787109,1.4257813,3.1787109,3.1787109C68.1806641,72.0737305,66.7548828,73.4995117,65.0019531,73.4995117z"/><path d="M86.3925781,65.1425781c-2.8574219,0-5.1826172,2.3232422-5.1826172,5.1787109s2.3251953,5.1782227,5.1826172,5.1782227   c2.8554688,0,5.1787109-2.3227539,5.1787109-5.1782227S89.2480469,65.1425781,86.3925781,65.1425781z M86.3925781,73.4995117   c-1.7548828,0-3.1826172-1.4257813-3.1826172-3.1782227c0-1.7529297,1.4277344-3.1787109,3.1826172-3.1787109   c1.7529297,0,3.1787109,1.4257813,3.1787109,3.1787109C89.5712891,72.0737305,88.1455078,73.4995117,86.3925781,73.4995117z"/><path d="M107.7832031,65.1425781c-2.8574219,0-5.1826172,2.3232422-5.1826172,5.1787109s2.3251953,5.1782227,5.1826172,5.1782227   c2.8554688,0,5.1787109-2.3227539,5.1787109-5.1782227S110.6386719,65.1425781,107.7832031,65.1425781z M107.7832031,73.4995117   c-1.7548828,0-3.1826172-1.4257813-3.1826172-3.1782227c0-1.7529297,1.4277344-3.1787109,3.1826172-3.1787109   c1.7529297,0,3.1787109,1.4257813,3.1787109,3.1787109C110.9619141,72.0737305,109.5361328,73.4995117,107.7832031,73.4995117z"/></g></svg>